<?xml version="1.0" encoding="UTF-8" standalone="no"?>
<!-- Created with Inkscape (http://www.inkscape.org/) -->

<svg
   width="66.321938mm"
   height="47.082291mm"
   viewBox="0 0 66.321938 47.082291"
   version="1.1"
   id="svg5"
   xml:space="preserve"
   xmlns:inkscape="http://www.inkscape.org/namespaces/inkscape"
   xmlns:sodipodi="http://sodipodi.sourceforge.net/DTD/sodipodi-0.dtd"
   xmlns="http://www.w3.org/2000/svg"
   xmlns:svg="http://www.w3.org/2000/svg"><sodipodi:namedview
     id="namedview7"
     pagecolor="#ffffff"
     bordercolor="#000000"
     borderopacity="0.25"
     inkscape:showpageshadow="2"
     inkscape:pageopacity="0.0"
     inkscape:pagecheckerboard="0"
     inkscape:deskcolor="#d1d1d1"
     inkscape:document-units="mm"
     showgrid="false" /><defs
     id="defs2" /><g
     inkscape:label="Layer 1"
     inkscape:groupmode="layer"
     id="layer1"
     transform="translate(-69.480859,-121.73488)"><path
       style="fill:#ffffff;stroke-width:0.264583"
       d="m 86.472733,168.22274 c -2.29018,-1.0989 -3.28642,-2.48179 -5.1004,-7.07992 -6.90647,-17.50668 -11.45146,-29.22195 -11.71256,-30.19056 -0.34946,-1.29642 -0.1705,-3.50613 0.39322,-4.85531 1.0645,-2.54771 3.97186,-4.36208 6.98982,-4.36208 2.74893,0 5.28483,1.34702 6.60845,3.51028 0.28784,0.47044 3.15104,7.55827 6.36266,15.75073 3.21161,8.19247 5.94877,15.091 6.08256,15.33008 0.18621,0.33273 0.39832,-0.0581 0.90432,-1.66622 1.10323,-3.50618 1.59558,-6.99879 1.62025,-11.49362 l 0.0225,-4.10104 -1.56864,-3.96875 c -1.41823,-3.58819 -1.56912,-4.15903 -1.5736,-5.95313 -0.004,-1.5573 0.1262,-2.24062 0.6045,-3.175 1.39792,-2.7309 3.83475,-4.23333 6.866147,-4.23333 2.28102,0 3.91046,0.66374 5.47824,2.23151 1.50819,1.5082 0.58225,-0.64395 9.47425,22.02089 2.69259,6.86315 5.03483,12.99486 5.20497,13.62604 0.34819,1.29168 0.17097,3.50501 -0.38769,4.84207 -0.5166,1.23639 -2.17321,2.99106 -3.44264,3.64641 -1.67416,0.8643 -4.9335,0.96237 -6.70183,0.20166 -2.66653,-1.14711 -3.33094,-2.1915 -6.55058,-10.29702 -2.05525,-5.17413 -2.9304,-7.09989 -3.06391,-6.74214 -0.1028,0.27543 -0.44869,1.63188 -0.76865,3.01433 -1.53805,6.64543 -4.562477,11.50512 -8.472217,13.61323 -1.21147,0.65321 -1.81617,0.79604 -3.69731,0.87331 -1.94549,0.0799 -2.42746,0.007 -3.57187,-0.54242 z m 37.233887,-20.17609 c -0.91704,-0.64231 -0.71799,-1.29871 0.70347,-2.31993 1.96508,-1.41177 2.80352,-3.31192 2.80631,-6.35993 l 0.002,-2.34412 -1.75322,-0.44379 c -2.95822,-0.74882 -4.80608,-2.65072 -5.40658,-5.56468 -0.75665,-3.67173 0.96627,-7.33003 4.09785,-8.70104 1.30504,-0.57135 4.85628,-0.55453 6.19414,0.0293 2.48449,1.08429 4.50557,3.82383 5.17318,7.01216 0.92857,4.43459 -0.49666,9.86166 -3.73667,14.22871 -2.51484,3.38962 -6.48372,5.5818 -8.08064,4.46328 z"
       id="path302" /></g></svg>
